<?xml version="1.0" encoding="UTF-8"?>
<svg width="700pt" height="700pt" version="1.1" viewBox="0 0 700 700" xmlns="http://www.w3.org/2000/svg" xmlns:xlink="http://www.w3.org/1999/xlink">
 <defs>
  <symbol id="t" overflow="visible">
   <path d="m3.6562-0.21875c-0.1875 0.09375-0.38672 0.16797-0.59375 0.21875-0.19922 0.050781-0.40625 0.078125-0.625 0.078125-0.66797 0-1.1992-0.17969-1.5938-0.54688-0.38672-0.375-0.57812-0.87891-0.57812-1.5156 0-0.64453 0.19141-1.1484 0.57812-1.5156 0.39453-0.375 0.92578-0.5625 1.5938-0.5625 0.21875 0 0.42578 0.027344 0.625 0.078125 0.20703 0.054687 0.40625 0.125 0.59375 0.21875v0.82812c-0.1875-0.125-0.375-0.21875-0.5625-0.28125-0.17969-0.0625-0.37109-0.09375-0.57812-0.09375-0.36719 0-0.65625 0.12109-0.875 0.35938-0.21094 0.23047-0.3125 0.55469-0.3125 0.96875 0 0.40625 0.10156 0.73047 0.3125 0.96875 0.21875 0.23047 0.50781 0.34375 0.875 0.34375 0.20703 0 0.39844-0.023437 0.57812-0.078125 0.1875-0.0625 0.375-0.16016 0.5625-0.29688z"/>
  </symbol>
  <symbol id="d" overflow="visible">
   <path d="m2.6875-2.1719c-0.085938-0.039063-0.16797-0.070313-0.25-0.09375-0.085938-0.019531-0.16797-0.03125-0.25-0.03125-0.25 0-0.44531 0.085937-0.57812 0.25-0.125 0.15625-0.1875 0.38281-0.1875 0.67188v1.375h-0.96875v-2.9844h0.96875v0.48438c0.11328-0.19531 0.25-0.33594 0.40625-0.42188 0.16406-0.09375 0.35938-0.14062 0.57812-0.14062h0.10938c0.039063 0 0.09375 0.007812 0.15625 0.015625z"/>
  </symbol>
  <symbol id="c" overflow="visible">
   <path d="m3.4375-1.5v0.26562h-2.2344c0.03125 0.23047 0.11328 0.40234 0.25 0.51562 0.13281 0.10547 0.32812 0.15625 0.57812 0.15625 0.20703 0 0.41406-0.023438 0.625-0.078125 0.20703-0.0625 0.42188-0.15625 0.64062-0.28125v0.73438c-0.21875 0.09375-0.44531 0.16406-0.67188 0.20312-0.23047 0.039062-0.45312 0.0625-0.67188 0.0625-0.54297 0-0.96484-0.13281-1.2656-0.40625-0.30469-0.28125-0.45312-0.67188-0.45312-1.1719 0-0.47656 0.14453-0.85938 0.4375-1.1406 0.30078-0.28125 0.70703-0.42188 1.2188-0.42188 0.46875 0 0.84375 0.14062 1.125 0.42188s0.42188 0.66406 0.42188 1.1406zm-0.96875-0.32812c0-0.17578-0.058594-0.31641-0.17188-0.42188-0.10547-0.11328-0.24219-0.17188-0.40625-0.17188-0.1875 0-0.33984 0.054687-0.45312 0.15625-0.11719 0.10547-0.1875 0.25-0.21875 0.4375z"/>
  </symbol>
  <symbol id="f" overflow="visible">
   <path d="m1.7969-1.3438c-0.19922 0-0.35156 0.039062-0.45312 0.10938-0.09375 0.0625-0.14062 0.16406-0.14062 0.29688 0 0.11719 0.035156 0.21094 0.10938 0.28125 0.082031 0.0625 0.19531 0.09375 0.34375 0.09375 0.17578 0 0.32812-0.0625 0.45312-0.1875s0.1875-0.28516 0.1875-0.48438v-0.10938zm1.4688-0.35938v1.7031h-0.96875v-0.4375c-0.125 0.17969-0.27344 0.30859-0.4375 0.39062-0.15625 0.082031-0.35156 0.125-0.57812 0.125-0.3125 0-0.57031-0.085938-0.76562-0.26562-0.1875-0.1875-0.28125-0.42188-0.28125-0.70312 0-0.35156 0.11719-0.61328 0.35938-0.78125 0.23828-0.16406 0.61719-0.25 1.1406-0.25h0.5625v-0.0625c0-0.15625-0.0625-0.26562-0.1875-0.32812-0.11719-0.070312-0.29688-0.10938-0.54688-0.10938-0.21094 0-0.40234 0.023437-0.57812 0.0625-0.17969 0.042969-0.33984 0.10156-0.48438 0.17188v-0.71875c0.19531-0.050781 0.39844-0.085938 0.60938-0.10938 0.20703-0.03125 0.41406-0.046875 0.625-0.046875 0.53906 0 0.92969 0.10938 1.1719 0.32812 0.23828 0.21094 0.35938 0.55469 0.35938 1.0312z"/>
  </symbol>
  <symbol id="b" overflow="visible">
   <path d="m1.5-3.8438v0.85938h0.98438v0.67188h-0.98438v1.2812c0 0.13672 0.023438 0.23047 0.078125 0.28125 0.0625 0.042969 0.17578 0.0625 0.34375 0.0625h0.48438v0.6875h-0.8125c-0.38672 0-0.65625-0.078125-0.8125-0.23438s-0.23438-0.42188-0.23438-0.79688v-1.2812h-0.46875v-0.67188h0.46875v-0.85938z"/>
  </symbol>
  <symbol id="i" overflow="visible">
   <path d="m2.5-2.5469v-1.6094h0.95312v4.1562h-0.95312v-0.4375c-0.13672 0.17969-0.28125 0.30859-0.4375 0.39062-0.15625 0.082031-0.33984 0.125-0.54688 0.125-0.375 0-0.68359-0.14453-0.92188-0.4375-0.23047-0.28906-0.34375-0.67188-0.34375-1.1406 0-0.45703 0.11328-0.83203 0.34375-1.125 0.23828-0.28906 0.54688-0.4375 0.92188-0.4375 0.19531 0 0.375 0.042969 0.53125 0.125 0.16406 0.085938 0.31641 0.21484 0.45312 0.39062zm-0.64062 1.9375c0.20703 0 0.36328-0.070313 0.46875-0.21875 0.11328-0.15625 0.17188-0.37891 0.17188-0.67188 0-0.28125-0.058594-0.49219-0.17188-0.64062-0.10547-0.15625-0.26172-0.23438-0.46875-0.23438-0.19922 0-0.35547 0.078125-0.46875 0.23438-0.10547 0.14844-0.15625 0.35938-0.15625 0.64062 0 0.29297 0.050781 0.51562 0.15625 0.67188 0.11328 0.14844 0.26953 0.21875 0.46875 0.21875z"/>
  </symbol>
  <symbol id="g" overflow="visible">
   <path d="m2.0469-0.60938c0.20703 0 0.36328-0.070313 0.46875-0.21875 0.11328-0.15625 0.17188-0.37891 0.17188-0.67188 0-0.28125-0.058594-0.49219-0.17188-0.64062-0.10547-0.15625-0.26172-0.23438-0.46875-0.23438-0.19922 0-0.35547 0.078125-0.46875 0.23438-0.10547 0.14844-0.15625 0.35938-0.15625 0.64062 0 0.29297 0.050781 0.51562 0.15625 0.67188 0.11328 0.14844 0.26953 0.21875 0.46875 0.21875zm-0.625-1.9375c0.125-0.17578 0.26562-0.30469 0.42188-0.39062 0.16406-0.082031 0.35156-0.125 0.5625-0.125 0.36328 0 0.66406 0.14844 0.90625 0.4375 0.23828 0.29297 0.35938 0.66797 0.35938 1.125 0 0.46875-0.12109 0.85156-0.35938 1.1406-0.24219 0.29297-0.54297 0.4375-0.90625 0.4375-0.21094 0-0.39844-0.042969-0.5625-0.125-0.15625-0.082031-0.29688-0.21094-0.42188-0.39062v0.4375h-0.96875v-4.1562h0.96875z"/>
  </symbol>
  <symbol id="h" overflow="visible">
   <path d="m0.0625-2.9844h0.95312l0.8125 2.0156 0.6875-2.0156h0.95312l-1.2656 3.2656c-0.125 0.33203-0.27344 0.56641-0.4375 0.70312-0.16797 0.13281-0.39062 0.20312-0.67188 0.20312h-0.54688v-0.64062h0.29688c0.16406 0 0.28516-0.027344 0.35938-0.078125 0.070313-0.054688 0.12891-0.14062 0.17188-0.26562l0.03125-0.09375z"/>
  </symbol>
  <symbol id="e" overflow="visible">
   <path d="m3.4688-1.8281v1.8281h-0.96875v-1.3906c0-0.25781-0.007812-0.4375-0.015625-0.53125-0.011719-0.10156-0.03125-0.17578-0.0625-0.21875-0.03125-0.0625-0.085937-0.10938-0.15625-0.14062-0.0625-0.039062-0.13281-0.0625-0.20312-0.0625-0.21094 0-0.37109 0.078125-0.48438 0.23438-0.10547 0.15625-0.15625 0.37109-0.15625 0.64062v1.4688h-0.96875v-2.9844h0.96875v0.4375c0.13281-0.17578 0.28516-0.30469 0.45312-0.39062 0.16406-0.082031 0.34375-0.125 0.53125-0.125 0.34375 0 0.60156 0.10938 0.78125 0.32812 0.1875 0.21094 0.28125 0.51172 0.28125 0.90625z"/>
  </symbol>
  <symbol id="a" overflow="visible">
   <path d="m1.875-2.375c-0.21094 0-0.37109 0.078125-0.48438 0.23438-0.10547 0.14844-0.15625 0.35938-0.15625 0.64062 0 0.29297 0.050781 0.51562 0.15625 0.67188 0.11328 0.14844 0.27344 0.21875 0.48438 0.21875 0.20703 0 0.36719-0.070313 0.48438-0.21875 0.11328-0.15625 0.17188-0.37891 0.17188-0.67188 0-0.28125-0.058594-0.49219-0.17188-0.64062-0.11719-0.15625-0.27734-0.23438-0.48438-0.23438zm0-0.6875c0.51953 0 0.92188 0.14062 1.2031 0.42188 0.28906 0.27344 0.4375 0.65234 0.4375 1.1406 0 0.5-0.14844 0.89062-0.4375 1.1719-0.28125 0.27344-0.68359 0.40625-1.2031 0.40625-0.51172 0-0.91406-0.13281-1.2031-0.40625-0.29297-0.28125-0.4375-0.67188-0.4375-1.1719 0-0.48828 0.14453-0.86719 0.4375-1.1406 0.28906-0.28125 0.69141-0.42188 1.2031-0.42188z"/>
  </symbol>
  <symbol id="s" overflow="visible">
   <path d="m0.45312-2.9844h0.96875v2.9844h-0.96875zm0-1.1719h0.96875v0.78125h-0.96875z"/>
  </symbol>
  <symbol id="r" overflow="visible">
   <path d="m0.45312-4.1562h0.96875v4.1562h-0.96875z"/>
  </symbol>
  <symbol id="q" overflow="visible">
   <path d="m2.4219-4.1562v0.625h-0.51562c-0.13672 0-0.23438 0.027344-0.29688 0.078125-0.054687 0.054687-0.078125 0.13672-0.078125 0.25v0.21875h0.82812v0.67188h-0.82812v2.3125h-0.95312v-2.3125h-0.46875v-0.67188h0.46875v-0.21875c0-0.32031 0.085937-0.5625 0.26562-0.71875 0.1875-0.15625 0.47266-0.23438 0.85938-0.23438z"/>
  </symbol>
  <symbol id="p" overflow="visible">
   <path d="m3.2344-2.5c0.11328-0.17578 0.25391-0.3125 0.42188-0.40625 0.16406-0.10156 0.35156-0.15625 0.5625-0.15625 0.33203 0 0.58594 0.10938 0.76562 0.32812 0.1875 0.21094 0.28125 0.51172 0.28125 0.90625v1.8281h-0.96875v-1.5625c0.007813-0.019531 0.015625-0.039062 0.015625-0.0625v-0.10938c0-0.21875-0.03125-0.375-0.09375-0.46875s-0.16406-0.14062-0.29688-0.14062c-0.1875 0-0.33594 0.078125-0.4375 0.23438-0.09375 0.14844-0.14062 0.35938-0.14062 0.64062v1.4688h-0.96875v-1.5625c0-0.33203-0.03125-0.54688-0.09375-0.64062-0.054688-0.09375-0.15234-0.14062-0.29688-0.14062-0.17969 0-0.32031 0.078125-0.42188 0.23438-0.09375 0.14844-0.14062 0.35938-0.14062 0.64062v1.4688h-0.96875v-2.9844h0.96875v0.4375c0.11328-0.17578 0.24219-0.30469 0.39062-0.39062 0.15625-0.082031 0.32812-0.125 0.51562-0.125 0.20703 0 0.39062 0.054688 0.54688 0.15625 0.15625 0.09375 0.27344 0.23047 0.35938 0.40625z"/>
  </symbol>
  <symbol id="o" overflow="visible">
   <path d="m3.4688-1.8281v1.8281h-0.96875v-1.3906c0-0.25781-0.007812-0.4375-0.015625-0.53125-0.011719-0.10156-0.03125-0.17578-0.0625-0.21875-0.03125-0.0625-0.085937-0.10938-0.15625-0.14062-0.0625-0.039062-0.13281-0.0625-0.20312-0.0625-0.21094 0-0.37109 0.078125-0.48438 0.23438-0.10547 0.15625-0.15625 0.37109-0.15625 0.64062v1.4688h-0.96875v-4.1562h0.96875v1.6094c0.13281-0.17578 0.28516-0.30469 0.45312-0.39062 0.16406-0.082031 0.34375-0.125 0.53125-0.125 0.34375 0 0.60156 0.10938 0.78125 0.32812 0.1875 0.21094 0.28125 0.51172 0.28125 0.90625z"/>
  </symbol>
  <symbol id="n" overflow="visible">
   <path d="m0.5-3.9844h1.1562l1.4375 2.7344v-2.7344h0.98438v3.9844h-1.1562l-1.4375-2.7344v2.7344h-0.98438z"/>
  </symbol>
  <symbol id="m" overflow="visible">
   <path d="m0.42188-1.1719v-1.8125h0.96875v0.29688 0.60938 0.48438c0 0.24219 0.003906 0.41797 0.015625 0.53125 0.007812 0.10547 0.03125 0.17969 0.0625 0.21875 0.039062 0.0625 0.09375 0.11719 0.15625 0.15625 0.0625 0.03125 0.13281 0.046875 0.21875 0.046875 0.19531 0 0.35156-0.078125 0.46875-0.23438 0.11328-0.15625 0.17188-0.36719 0.17188-0.64062v-1.4688h0.95312v2.9844h-0.95312v-0.4375c-0.14844 0.17969-0.30469 0.30859-0.46875 0.39062-0.15625 0.082031-0.33594 0.125-0.53125 0.125-0.34375 0-0.60938-0.10156-0.79688-0.3125-0.17969-0.21875-0.26562-0.53125-0.26562-0.9375z"/>
  </symbol>
  <symbol id="l" overflow="visible">
   <path d="m0.5-3.9844h1.7031c0.50781 0 0.89844 0.11719 1.1719 0.34375 0.26953 0.21875 0.40625 0.53906 0.40625 0.95312 0 0.41797-0.13672 0.74219-0.40625 0.96875-0.27344 0.21875-0.66406 0.32812-1.1719 0.32812h-0.67188v1.3906h-1.0312zm1.0312 0.75v1.1094h0.5625c0.19531 0 0.34766-0.046875 0.45312-0.14062 0.11328-0.10156 0.17188-0.24219 0.17188-0.42188 0-0.17578-0.058594-0.3125-0.17188-0.40625-0.10547-0.09375-0.25781-0.14062-0.45312-0.14062z"/>
  </symbol>
  <symbol id="k" overflow="visible">
   <path d="m0.45312-2.9844h0.96875v2.9375c0 0.39453-0.10156 0.69531-0.29688 0.90625-0.1875 0.21875-0.46484 0.32812-0.82812 0.32812h-0.48438v-0.64062h0.17188c0.17578 0 0.29688-0.042969 0.35938-0.125 0.070312-0.074219 0.10938-0.23047 0.10938-0.46875zm0-1.1719h0.96875v0.78125h-0.96875z"/>
  </symbol>
  <symbol id="j" overflow="visible">
   <path d="m2.875-2.8906v0.76562c-0.125-0.082031-0.25781-0.14453-0.39062-0.1875-0.13672-0.039062-0.27344-0.0625-0.40625-0.0625-0.27344 0-0.48047 0.078125-0.625 0.23438-0.14844 0.15625-0.21875 0.37109-0.21875 0.64062 0 0.28125 0.070313 0.5 0.21875 0.65625 0.14453 0.15625 0.35156 0.23438 0.625 0.23438 0.14453 0 0.28516-0.019531 0.42188-0.0625 0.13281-0.039063 0.25781-0.10938 0.375-0.20312v0.78125c-0.14844 0.0625-0.29688 0.10156-0.45312 0.125-0.15625 0.03125-0.3125 0.046875-0.46875 0.046875-0.54297 0-0.96484-0.13281-1.2656-0.40625-0.30469-0.28125-0.45312-0.67188-0.45312-1.1719 0-0.48828 0.14844-0.86719 0.45312-1.1406 0.30078-0.28125 0.72266-0.42188 1.2656-0.42188 0.15625 0 0.3125 0.015625 0.46875 0.046875 0.15625 0.023437 0.30469 0.0625 0.45312 0.125z"/>
  </symbol>
 </defs>
 <g>
  <path d="m481.34 196.23c-6.8711-6.8555-15.844-11.203-25.484-12.348 2.2109-17.074-3.625-34.207-15.805-46.375-12.176-12.168-29.312-17.996-46.383-15.773-1.1484-9.6406-5.5-18.617-12.359-25.484-8.207-8.1367-19.156-12.914-30.703-13.387-11.578-0.59375-22.875 3.7148-31.117 11.867-7.9922 7.582-12.871 17.875-13.684 28.863-17.059-2.1719-34.156 3.6875-46.297 15.867-12.141 12.176-17.949 29.293-15.73 46.344-9.6562 1.1406-18.652 5.4961-25.539 12.359-8.1016 8.1055-12.652 19.094-12.652 30.551 0 11.457 4.5508 22.445 12.652 30.547 5.7656 5.7656 16.035 10.348 24.215 12.371h0.003906c-1.5977 16.816 4.5391 33.449 16.68 45.199 12.137 11.746 28.961 17.34 45.719 15.199 1.0625 9.2148 5.0742 17.84 11.438 24.594 6.3594 6.7539 14.73 11.273 23.867 12.887v96.766h-26.742c-3.0195 0-5.4688 2.4492-5.4688 5.4688 0 3.0195 2.4492 5.4688 5.4688 5.4688h64.367c3.0195 0 5.4688-2.4492 5.4688-5.4688 0-3.0195-2.4492-5.4688-5.4688-5.4688h-26.688v-96.25c8.6055-0.65234 16.82-3.875 23.578-9.2422 6.7578-5.3711 11.75-12.645 14.332-20.879 3.5781 0.61719 7.207 0.93359 10.84 0.9375 14.875 0 28.875-5.3164 38.688-15.125 2.8438-2.8438 12.5-13.125 17.566-26.602 3.5312-9.3945 3.8516-17.98 1.0938-25.387 8.2266-1.1602 15.664-5.8828 25.078-15.312 16.48-16.699 16.109-45.137-0.93359-62.188zm-31.359 66.719h0.003907c-2.2148-1.8164-5.4609-1.6172-7.4336 0.46094s-2.0078 5.3242-0.082031 7.4453c6.1367 6.1484 7.2422 14.133 3.3672 24.434-3.4141 9.0547-10.02 17.676-15.062 22.719-10.117 10.117-26.82 14.219-42.844 10.543h0.003907c-1.5469-0.99219-3.4883-1.1406-5.168-0.39062-1.6836 0.74609-2.875 2.2852-3.1758 4.0977-1.1445 6.9805-4.5547 13.391-9.7031 18.238-5.1523 4.8516-11.754 7.8711-18.789 8.5938v-44.777c0.32812-0.23438 0.62891-0.50391 0.89844-0.80078l38.281-42.406v0.003906c2.0234-2.2461 1.8438-5.707-0.40234-7.7305-2.2422-2.0234-5.7031-1.8438-7.7266 0.40234l-31.051 34.398v-47.449l17.926-19.875v0.003906c2.0234-2.2461 1.8438-5.707-0.39844-7.7305-2.2422-2.0234-5.7031-1.8438-7.7266 0.40234l-9.8438 10.871v-15.902c0-3.0234-2.4492-5.4688-5.4688-5.4688s-5.4688 2.4453-5.4688 5.4688v44l-16.199-14.523c-1.0781-0.98437-2.5039-1.4961-3.9609-1.4219-1.457 0.074218-2.8242 0.72656-3.8008 1.8125-0.97266 1.0859-1.4688 2.5195-1.3828 3.9766 0.085938 1.457 0.75391 2.8164 1.8477 3.7812l23.539 21.008v81.223c-7.2461-1.7539-13.656-5.9648-18.145-11.914-4.4922-5.9531-6.7773-13.273-6.4766-20.723v-0.15234c0.015625-0.23828 0.015625-0.47656 0-0.71094 0-0.14062 0-0.28516-0.066406-0.41406v-0.003906c0.007812-0.09375 0.007812-0.1875 0-0.28125-0.027344-0.11719-0.070312-0.23047-0.11719-0.33984 0-0.14062-0.097656-0.28516-0.15234-0.42578h-0.003907c-0.082031-0.19531-0.17578-0.38672-0.28125-0.57031-0.0625-0.12109-0.13281-0.23828-0.21094-0.35156-0.12109-0.17969-0.25-0.35547-0.39062-0.52344l-0.27344-0.28516c-0.14844-0.14844-0.30859-0.29297-0.47266-0.42578l-0.35156-0.25h0.003906c-0.16797-0.11328-0.33984-0.21484-0.51562-0.30859-0.13672-0.074219-0.28125-0.14062-0.42578-0.19531-0.17969-0.078125-0.36328-0.14453-0.54688-0.19922-0.15234-0.046875-0.30469-0.089844-0.46094-0.11719-0.20312-0.042968-0.40625-0.070312-0.61328-0.089843h-1.0391c-0.20313 0.019531-0.41016 0.046875-0.60938 0.089843h-0.17578c-14.82 3.7656-30.535-0.31641-41.645-10.824-11.105-10.508-16.059-25.973-13.121-40.977 0.27734-1.4297-0.03125-2.9141-0.85156-4.1172-0.82422-1.2031-2.0898-2.0273-3.5234-2.293-0.21875-0.035156-0.44141-0.054687-0.66797-0.066406-0.35156-0.14453-0.71875-0.25-1.0938-0.31641-6.7812-1.0938-17.062-5.2812-21.875-10.062-6.1562-6.1562-9.5664-14.543-9.4492-23.25 0.11328-8.7109 3.7461-17 10.07-22.992 6.3203-5.9883 14.797-9.1719 23.496-8.8164h0.21094c0.29297-0.003907 0.58594-0.03125 0.875-0.078125h0.054688l0.41406-0.078125c0.12109 0 0.23047-0.085938 0.35156-0.13281l0.40625-0.14062-0.003906 0.003907c0.20703-0.089844 0.40625-0.1875 0.60156-0.29688l0.31641-0.19531c0.19141-0.12891 0.375-0.26562 0.54687-0.41797l0.27344-0.25c0.15234-0.15234 0.29297-0.3125 0.42969-0.48047 0.09375-0.11328 0.17969-0.23047 0.26172-0.35156 0.10938-0.16406 0.21094-0.33594 0.30469-0.51562 0.066406-0.13281 0.13281-0.27344 0.19531-0.42578h0.003906c0.074219-0.17188 0.14063-0.35156 0.19531-0.53516 0-0.16406 0.085937-0.31641 0.12109-0.48047 0.035156-0.19141 0.0625-0.38672 0.074219-0.58203 0.007812-0.09375 0.007812-0.1875 0-0.28125v-0.23047c0.011718-0.17969 0.011718-0.35938 0-0.53516-0.015626-0.20312-0.046876-0.40625-0.085938-0.60156v-0.19531-0.003907c-3.8711-15.238 0.5625-31.387 11.676-42.512 11.109-11.125 27.254-15.578 42.496-11.727h0.12109c0.19141 0.039062 0.38672 0.070312 0.58203 0.085938h0.82031 0.30469l0.57031-0.078126 0.51563-0.14062h-0.003907c0.16406-0.042969 0.32422-0.097657 0.48047-0.16406 0.17969-0.066406 0.35156-0.14844 0.51562-0.23828l0.41406-0.24219c0.15234-0.10938 0.30469-0.21875 0.44922-0.33984 0.13281-0.097656 0.25781-0.20703 0.37109-0.32812 0.13281-0.12109 0.25781-0.25391 0.375-0.39063 0.10938-0.13281 0.20703-0.26172 0.30469-0.40625 0.097656-0.14062 0.19531-0.30469 0.29687-0.46875 0.097657-0.16406 0.15234-0.29687 0.21875-0.44922 0.066407-0.15234 0.14063-0.37109 0.20703-0.55859s0.078125-0.1875 0.097656-0.28516c0.023438-0.097656 0-0.13281 0-0.19531 0-0.066406 0.054688-0.37109 0.078125-0.55859 0.007813-0.1875 0.007813-0.37891 0-0.57031v-0.19531c-0.48047-14.461 5.4688-22.289 10.641-27.496 12.164-12.164 33.391-11.484 46.352 1.4766 6.3555 6.3594 9.7695 15.078 9.4297 24.062v0.16406c-0.015625 0.23047-0.015625 0.45703 0 0.6875 0.011719 0.15234 0.03125 0.30078 0.066406 0.44922-0.007812 0.085938-0.007812 0.17578 0 0.26172 0 0.12109 0.085938 0.21875 0.12109 0.32812 0.03125 0.10938 0.097656 0.29688 0.16406 0.44922 0.066407 0.15234 0.17578 0.37109 0.27344 0.55859s0.14062 0.24219 0.21875 0.35938c0.078125 0.12109 0.25 0.33984 0.38281 0.50391 0.23047 0.25391 0.47656 0.49219 0.74219 0.71094l0.37109 0.27344c0.15625 0.10938 0.32031 0.21094 0.49219 0.29688l0.4375 0.20703c0.17578 0.070313 0.35547 0.13281 0.53516 0.18359 0.16016 0.058594 0.32031 0.10156 0.48437 0.13281 0.19531 0.035156 0.39063 0.0625 0.58984 0.078124 0.09375 0.003907 0.1875 0.003907 0.28516 0h0.21875c0.18359 0.007813 0.37109 0.007813 0.55469 0 0.18359-0.015624 0.36719-0.042968 0.54688-0.078124h0.23047c15.266-3.918 31.465 0.51172 42.617 11.648 11.148 11.137 15.598 27.332 11.699 42.602-0.003906 0.066406-0.003906 0.13281 0 0.19531-0.039062 0.1875-0.070312 0.37891-0.085938 0.57031-0.011718 0.1875-0.011718 0.37891 0 0.57031v0.20703c-0.007812 0.09375-0.007812 0.1875 0 0.28516 0.007813 0.19531 0.035157 0.38672 0.074219 0.57813 0 0.16406 0.078125 0.31641 0.12109 0.46875 0.042969 0.15234 0.10938 0.35937 0.17578 0.52344s0.14062 0.30469 0.21875 0.44922c0.078125 0.14062 0.17578 0.32812 0.27344 0.48047 0.097656 0.15234 0.1875 0.25 0.28516 0.37109v0.003906c0.10938 0.15625 0.23438 0.30078 0.37109 0.4375 0.10156 0.10938 0.21094 0.21094 0.32812 0.30469 0.14844 0.13672 0.30469 0.26172 0.46875 0.375 0.12109 0.085938 0.25 0.15234 0.37109 0.23047 0.12109 0.078125 0.35156 0.19531 0.52344 0.27344l0.46875 0.17578c0.14062 0 0.26172 0.10937 0.39453 0.14062h0.34375c0.33203 0.058594 0.66797 0.089844 1.0039 0.097657h0.13281c8.9844-0.33984 17.699 3.0781 24.062 9.4258 12.875 12.875 13.266 34.277 0.86328 46.746-10.969 11.094-17.16 13.137-24.477 12.309z"/>
  <use x="70" y="576.40625" xlink:href="#t"/>
  <use x="74.011719" y="576.40625" xlink:href="#d"/>
  <use x="76.710938" y="576.40625" xlink:href="#c"/>
  <use x="80.417969" y="576.40625" xlink:href="#f"/>
  <use x="84.109375" y="576.40625" xlink:href="#b"/>
  <use x="86.722656" y="576.40625" xlink:href="#c"/>
  <use x="90.433594" y="576.40625" xlink:href="#i"/>
  <use x="96.25" y="576.40625" xlink:href="#g"/>
  <use x="100.167969" y="576.40625" xlink:href="#h"/>
  <use x="105.636719" y="576.40625" xlink:href="#f"/>
  <use x="109.324219" y="576.40625" xlink:href="#e"/>
  <use x="113.21875" y="576.40625" xlink:href="#b"/>
  <use x="115.832031" y="576.40625" xlink:href="#a"/>
  <use x="119.589844" y="576.40625" xlink:href="#e"/>
  <use x="123.484375" y="576.40625" xlink:href="#s"/>
  <use x="125.359375" y="576.40625" xlink:href="#a"/>
  <use x="131.019531" y="576.40625" xlink:href="#g"/>
  <use x="134.933594" y="576.40625" xlink:href="#f"/>
  <use x="138.625" y="576.40625" xlink:href="#d"/>
  <use x="141.320312" y="576.40625" xlink:href="#b"/>
  <use x="143.933594" y="576.40625" xlink:href="#a"/>
  <use x="147.691406" y="576.40625" xlink:href="#r"/>
  <use x="149.566406" y="576.40625" xlink:href="#a"/>
  <use x="70" y="581.875" xlink:href="#q"/>
  <use x="72.378906" y="581.875" xlink:href="#d"/>
  <use x="75.078125" y="581.875" xlink:href="#a"/>
  <use x="78.832031" y="581.875" xlink:href="#p"/>
  <use x="86.4375" y="581.875" xlink:href="#b"/>
  <use x="89.050781" y="581.875" xlink:href="#o"/>
  <use x="92.941406" y="581.875" xlink:href="#c"/>
  <use x="98.554688" y="581.875" xlink:href="#n"/>
  <use x="103.132812" y="581.875" xlink:href="#a"/>
  <use x="106.890625" y="581.875" xlink:href="#m"/>
  <use x="110.785156" y="581.875" xlink:href="#e"/>
  <use x="116.582031" y="581.875" xlink:href="#l"/>
  <use x="120.589844" y="581.875" xlink:href="#d"/>
  <use x="123.285156" y="581.875" xlink:href="#a"/>
  <use x="127.042969" y="581.875" xlink:href="#k"/>
  <use x="128.917969" y="581.875" xlink:href="#c"/>
  <use x="132.625" y="581.875" xlink:href="#j"/>
  <use x="135.867188" y="581.875" xlink:href="#b"/>
 </g>
</svg>
